<?xml version="1.0" encoding="UTF-8" standalone="no"?><!DOCTYPE svg PUBLIC "-//W3C//DTD SVG 1.1//EN" "http://www.w3.org/Graphics/SVG/1.1/DTD/svg11.dtd"><svg width="100%" height="100%" viewBox="0 0 3684 6667" version="1.1" xmlns="http://www.w3.org/2000/svg" xmlns:xlink="http://www.w3.org/1999/xlink" xml:space="preserve" xmlns:serif="http://www.serif.com/" style="fill-rule:evenodd;clip-rule:evenodd;stroke-linejoin:round;stroke-miterlimit:2;"><rect x="0" y="0" width="3683.333" height="6666.667" style="fill:#747474;fill-rule:nonzero;"/><path d="M483.333,3933.333c22.718,27.271 71.845,50.468 109.375,52.604c21.706,-3.618 46.953,-9.352 63.298,-25.033c6.825,-7.428 6.825,-7.428 17.334,-14.958c4.283,-2.961 8.44,-5.834 12.598,-8.708c58.042,-26.436 58.042,-26.436 122.942,-26.92c9.142,-0.165 18.283,-0.35 27.424,-0.546c5.851,-0.139 11.702,-0.278 17.554,-0.415c15.96,-0.303 30.892,-0.181 46.143,-5.192c36.876,-20.605 59.553,-55.874 75.146,-94.222c1.367,-3.381 2.694,-6.663 4.02,-9.945c7.695,-16.475 14.871,-32.808 20.833,-50c8.863,-33.439 24.433,-84.468 8.333,-116.667c-5.135,-1.328 -10.12,-2.617 -15.104,-3.906c-36.201,-8.537 -62.287,-24.26 -89.062,-50.26c-38.452,-47.663 -50.504,-98.456 -45.833,-158.333c0,0 2.174,-82.112 45.833,-83.333c-0.974,-3.265 -1.919,-6.434 -2.865,-9.603c-7.145,-14.673 -7.145,-14.673 -38.932,-30.566c-4.206,-1.926 -8.288,-3.795 -12.37,-5.664c-56.838,-26.083 -128.105,-20.364 -177.865,16.667c-8.245,7.131 -16.072,12.717 -25.26,18.49c-5.936,3.503 -11.836,7.068 -17.708,10.677c-49.819,24.622 -49.819,24.622 -106.603,23.727c-10.861,-0.03 -21.72,0.008 -32.582,0.076c-6.963,0.071 -13.927,0.139 -20.89,0.203c-11.973,-0.064 -23.828,-0.096 -35.758,0.993c-37.944,10.312 -69.902,37.05 -94.727,67.074c-38.596,54.81 -53.321,117.252 -45.378,183.447c0.885,4.073 1.745,8.026 2.604,11.979c5.456,31.703 -5.22,41.857 69.289,161.642" style="fill-rule:nonzero;"/><path d="M1562.5,3137.5c38.836,26.328 75.681,59.256 91.667,104.167c1.063,2.965 2.127,5.93 3.223,8.985c8.901,26.831 11.067,50.885 10.579,79.035c0.013,3.905 0.027,7.81 0.041,11.833c-0.279,36.302 -8.958,66.501 -22.176,100.146c3.343,-2.705 -33.088,46.435 -45.833,54.167c-32.3,19.594 -62.644,37.747 -100,45.833c-3.029,0.763 -6.059,1.525 -9.18,2.311c-42.4,6.751 -91.294,5.584 -132.487,-6.478c-3.131,-0.811 -6.263,-1.622 -9.489,-2.458c-32.618,-9.423 -58.748,-27.378 -82.178,-51.709c-6.188,-2.062 -6.188,-2.062 -12.5,-4.167l0,200l-83.333,0l0,-558.333l83.333,0l0,66.667l12.5,0c1.595,-3.738 1.595,-3.738 3.223,-7.552c15.507,-27.655 53.321,-44.968 82.567,-54.18c65.186,-17.374 149.382,-22.009 210.043,11.732Z" style="fill:#030303;fill-rule:nonzero;"/><path d="M1952.604,3115.104c4.979,-0.102 9.958,-0.204 15.088,-0.309c48.022,-0.156 90.044,9.249 128.955,38.249c7.862,6.069 27.62,17.773 35.384,27.946c3.891,5.019 20.458,24.22 22.135,27.344c31.55,58.748 39.128,120.947 23.958,186.458c-14.945,49.492 -42.403,90.858 -87.549,117.35c-4.71,2.353 -9.421,4.705 -14.274,7.129c-4.657,2.374 -9.313,4.748 -14.111,7.194c-36.038,16.131 -71.632,21.701 -110.889,21.452c-4.343,-0.021 -8.685,-0.042 -13.159,-0.063c-63.697,-1.424 -109.683,-19.394 -154.81,-64.52c-6.188,-2.062 -6.188,-2.062 -12.5,-4.167c0.009,2.444 0.019,4.888 0.028,7.407c0.092,25.345 0.155,50.689 0.201,76.034c0.021,9.47 0.049,18.94 0.085,28.41c0.05,13.579 0.074,27.159 0.093,40.738c0.022,4.262 0.043,8.524 0.065,12.915c0,5.881 0,5.881 0.001,11.88c0.009,3.47 0.019,6.939 0.028,10.514c-0.501,7.936 -0.501,7.936 -4.668,12.102l-79.167,0l0,-558.333l79.167,0l0,70.833l12.5,0c1.031,-2.455 2.062,-4.909 3.125,-7.438c18.524,-32.822 62.905,-51.135 96.68,-63.867c23.941,-6.503 49.022,-5.231 73.633,-5.257Z" style="fill:#020202;fill-rule:nonzero;"/><path d="M1754.167,3000c-16.686,-18.244 -31.283,-40.102 -41.667,-62.5c-1.558,-3.319 -3.115,-6.639 -4.72,-10.059c-22.019,-57.127 -22.942,-138.197 -0.781,-195.459c18.478,-37.449 40.05,-84.232 79.712,-102.052c109.871,-75.392 257.173,-91.378 367.977,-5.711c45.459,37.65 65.751,76.55 78.646,134.115l0,83.333l-437.5,0c6.626,52.978 6.626,52.978 29.167,95.833c2.578,4.469 5.156,8.938 7.812,13.542c26.839,34.732 71.11,48.581 113.135,55.973c71.092,7.567 149.888,0.236 214.209,-32.796c14.844,-7.552 14.844,-7.552 27.344,-7.552c0.677,10.081 1.171,20.116 1.562,30.208c0.209,2.841 0.419,5.683 0.635,8.61c0.244,8.382 0.244,8.382 -2.197,23.682c-60.301,53.316 -178.794,49.736 -253.501,46.714c-61.628,-4.124 -119.128,-23.941 -167.332,-63.381" style="fill:#030303;fill-rule:nonzero;"/><path d="M1409.635,2574.479c3.878,0.02 7.755,0.04 11.75,0.061c46.861,0.41 84.226,5.104 128.614,21.293c0,23.375 -1.814,43.122 -1.814,67.205c-6.643,0 -0.345,-1.858 -14.853,-4.705c-2.573,-0.505 -5.146,-1.01 -7.796,-1.53c-3.529,-0.698 -7.058,-1.396 -10.693,-2.116c-3.432,-0.677 -6.864,-1.354 -10.4,-2.051c-6.961,-1.436 -13.914,-2.934 -20.79,-4.734c-26.979,-6.804 -53.038,-7.832 -80.789,-7.798c-6.901,-0.008 -6.901,-0.008 -13.941,-0.016c-33.015,0.43 -58.25,8.707 -88.47,22.327c-6.778,0 -8.869,4.316 -17.12,10.762c-12.385,15.094 -10.107,28.844 -8.333,47.656c1.769,12.045 1.769,12.045 4.167,20.833c43.785,14.595 73.739,38.847 113.021,49.658c53.033,14.675 100.088,30.844 145.312,62.842c2.734,1.842 5.468,3.685 8.285,5.583c17.288,12.741 27.364,28.242 33.382,48.584c5.12,34.693 -0.144,63.152 -20.833,91.667c-48.026,51.886 -115.489,71.283 -184.617,75.926c-14.948,0.489 -29.854,0.655 -44.81,0.637c-5.291,-0.001 -10.581,-0.001 -16.032,-0.002c-50.293,-0.607 -95.288,-7.859 -142.041,-26.56l0,-79.167c25,8.333 25,8.333 39.014,14.535c66.56,27.668 153.968,35.58 223.486,14.632c31.211,-16.097 46.548,-25.211 44.271,-55.208c-0.435,-6.091 -0.435,-6.091 -0.879,-12.305c-1.711,-11.559 -3.474,-18.72 -10.059,-28.32c-7.479,-4.741 -7.479,-4.741 -16.667,-8.333c-3.76,-1.977 -7.52,-3.953 -11.393,-5.99c-26.94,-14.305 -26.94,-14.305 -55.794,-23.698c-13.19,-2.978 -23.625,-6.501 -35.938,-11.719c-15.187,-6.343 -29.753,-10.598 -45.833,-14.062c-48.17,-11.608 -88.702,-32.663 -117.708,-73.698c-2.75,-3.781 -5.5,-7.562 -8.333,-11.458c-8.114,-26.372 -9.358,-58.376 1.042,-84.375c25.776,-44.188 66.442,-69.049 115.112,-81.875c39.748,-10.065 77.462,-14.702 118.481,-14.48Z" style="fill:#030303;fill-rule:nonzero;"/><path d="M2987.5,2733.333c21.65,0.433 125.368,58.456 137.5,62.5c-2.381,16.488 -258.621,492.623 -266.667,512.5c-16.455,-2.296 -113.197,-48.19 -116.667,-50c-2.491,-24.122 236.549,-515.716 245.833,-525Z" style="fill:#020202;fill-rule:nonzero;"/><path d="M1389.762,3174.593c4.471,0.013 8.943,0.027 13.55,0.041c4.665,0.035 9.33,0.07 14.136,0.106c7.07,0.028 7.07,0.028 14.282,0.057c11.646,0.049 23.291,0.118 34.937,0.203c0,2.75 0,-2.833 0,0c12.721,2.148 58.606,26 87.5,58.333c0,4.125 8.333,8.25 8.333,12.5c2.75,0 23.358,92.079 12.891,137.061c-3.834,11.542 -13.262,44.675 -18.224,55.773c-2.75,0 -51.939,30.836 -80.262,41.639c-54.737,16.186 -103.872,10.711 -154.297,-13.558c-23.81,-14.036 -36.599,-29.467 -48.389,-54.248c-2.036,-4.211 -4.071,-8.422 -6.169,-12.76c-1.832,-4.039 -3.663,-8.078 -5.55,-12.24c-1.568,-3.185 -3.137,-6.37 -4.753,-9.652c-12.341,-38.536 -9.272,-86.757 9.18,-122.64c26.773,-45.996 67.089,-80.91 122.835,-80.615Z" style="fill:#7b7b7b;fill-rule:nonzero;"/><path d="M1930.469,3173.698c3.693,-0.067 7.385,-0.134 11.19,-0.203c36.2,-0.026 69.232,6.098 97.404,30.151c3.298,2.739 6.596,5.479 9.993,8.301c28.146,26.961 42.073,55.901 43.945,94.971c0.139,6.981 0.214,13.964 0.228,20.947c0.007,3.315 0.013,6.629 0.02,10.044c-0.684,36.593 -8.755,65.88 -30.75,95.424c-2.723,3.811 -2.723,3.811 -5.501,7.699c-24.038,28.632 -63.699,43.046 -100.118,47.725c-54.25,3.988 -100.334,-4.338 -142.753,-40.271c-15.962,-15.2 -18.013,-23.486 -22.461,-23.486c-20.824,-45.589 -32.812,-96.865 -18.215,-146.383c13.518,-35.223 34.186,-62.408 65.611,-83.565c4.431,-3.053 4.431,-3.053 8.952,-6.169c26.714,-14.368 52.882,-15.292 82.454,-15.186Z" style="fill:#7d7d7d;fill-rule:nonzero;"/><path d="M2664.062,2578.646c3.357,-0.016 6.714,-0.032 10.173,-0.049c24.708,0.041 24.708,0.041 34.098,4.736l0,70.833c-5.672,-0.688 -11.344,-1.375 -17.188,-2.083c-54.621,-5.261 -105.777,-7.755 -150.228,28.418c-35.935,33.159 -50.663,69.144 -54.664,118.073c-0.584,16.913 -0.812,33.789 -0.886,50.71c-0.07,6.188 -0.146,12.375 -0.227,18.563c-0.196,16.11 -0.321,32.22 -0.431,48.331c-0.125,16.51 -0.319,33.019 -0.506,49.529c-0.356,32.264 -0.632,64.528 -0.871,96.794l-95.833,0l0,-475l95.833,0l0,91.667l8.333,0c0.473,-2.422 0.945,-4.845 1.432,-7.34c10.262,-35.001 44.373,-58.862 73.877,-77.197c30.479,-16.647 63.111,-16.151 97.087,-15.983Z" style="fill:#020202;fill-rule:nonzero;"/><path d="M2489.583,3333.073c3.438,2.836 6.875,5.672 10.417,8.594c3.695,3.008 7.391,6.016 11.198,9.115c23.033,28.013 22.135,54.36 22.135,90.885l-216.667,0c7.959,31.836 12.544,48.249 40.462,65.186c28.652,11.808 66.412,10.49 95.736,0.439c13.878,-6.251 13.878,-6.251 21.615,-16.406c14.622,-12.472 32.086,-8.819 50.521,-7.552c0,16.667 0,16.667 -5.827,24.089c-38.329,33.33 -78.258,44.238 -128.304,43.717c-36.946,-2.653 -69.749,-12.592 -96.484,-38.932c-26.906,-31.423 -33.528,-58.336 -33.024,-99.43c2.662,-29.851 16.349,-52.697 38.102,-72.9c55.338,-40.818 131.576,-43.676 190.12,-6.803Z" style="fill:#080808;fill-rule:nonzero;"/><path d="M1128.418,3334.163c23.993,17.18 32.936,35.953 29.915,32.503l0,183.333l-50,0l0,-29.167c-2.718,1.708 -5.436,3.416 -8.236,5.176c-41.482,25.575 -74.17,34.902 -122.982,25.293c-27.697,-7.536 -45.513,-13.731 -60.449,-38.802c-5.654,-16.963 -6.918,-32.281 -4.167,-50c8.089,-14.803 19.346,-24.008 33.333,-33.333c8.084,-3.635 18.122,-8.212 20.833,-8.333c16.544,-3.833 32.34,-4.962 49.3,-5.485c5.385,-0.175 10.769,-0.349 16.317,-0.529c5.645,-0.166 11.29,-0.331 16.935,-0.496c5.727,-0.18 11.453,-0.362 17.179,-0.545c13.978,-0.441 27.956,-0.867 41.935,-1.278c0.192,-14.38 -0.513,-27.716 -4.167,-41.667c-20.739,-17.954 -40.24,-19.284 -66.927,-18.75c-3.236,-0.064 -6.472,-0.129 -9.806,-0.195c-24.305,0.165 -39.068,5.58 -56.6,23.112c-7.025,0.3 -14.063,0.349 -21.094,0.26c-3.83,-0.038 -7.659,-0.075 -11.605,-0.114c-2.959,-0.048 -5.919,-0.097 -8.968,-0.146c1.107,-16.24 2.346,-23.179 14.062,-34.896c6.354,-7.28 19.313,-12.729 23.438,-15.104c52.911,-15.258 112.734,-18.329 161.751,9.163Z" style="fill:#060606;fill-rule:nonzero;"/><path d="M1976.563,2636.719c5.752,-0.077 5.752,-0.077 11.621,-0.155c31.362,-0.067 56.194,3.702 82.65,21.769c2.675,1.81 5.35,3.62 8.105,5.485c29.299,20.704 44.19,43.664 54.395,77.848l0,37.5l-337.5,0c5.994,-41.959 19.89,-73.339 52.458,-100.749c42.259,-31.651 76.001,-41.663 128.271,-41.699Z" style="fill:#818182;fill-rule:nonzero;"/><path d="M2723.6,3392.692c49.861,25.281 96.971,86.779 71.842,137.305c-16.259,19.935 -35.394,34.923 -61.263,38.102c-72.145,2.197 -122.637,-45.797 -134.88,-72.233c-34.277,-82.716 57.372,-125.935 124.3,-103.174Z" style="fill:#020202;fill-rule:nonzero;"/><path d="M673.438,3108.073c5.108,0.056 5.108,0.056 10.319,0.114c3.916,0.073 3.916,0.073 7.91,0.146c13.809,45.388 4.787,92.305 -16.667,133.333c-19.499,33.291 -45.554,66.339 -84.131,77.686c-8.057,1.221 -8.057,1.221 -20.036,1.481c-17.106,-26.033 -10.677,-69.959 -6.689,-99.805c9.394,-37.575 34.729,-68.731 65.023,-91.862c3.008,-3.008 6.016,-6.016 9.115,-9.115c11.782,-11.782 18.987,-12.21 35.156,-11.979Z" style="fill:#030303;fill-rule:nonzero;"/><path d="M2209.375,3228.613c3.781,0.011 7.562,0.021 11.458,0.033c5.672,-0.016 5.672,-0.016 11.458,-0.033c9.375,0.553 9.375,0.553 13.542,4.72c0.396,9.888 0.523,19.653 0.473,29.542c0.001,3.089 0.001,6.178 0.002,9.361c-0.003,10.258 -0.035,20.516 -0.068,30.774c-0.008,7.094 -0.014,14.188 -0.018,21.281c-0.016,18.707 -0.057,37.414 -0.103,56.122c-0.043,19.075 -0.062,38.15 -0.083,57.224c-0.045,37.454 -0.116,74.908 -0.203,112.362l-50,0c-0.096,-41.216 -0.17,-82.432 -0.216,-123.649c-0.022,-19.136 -0.051,-38.273 -0.098,-57.409c-0.045,-18.452 -0.07,-36.904 -0.081,-55.356c-0.008,-7.056 -0.023,-14.111 -0.045,-21.167c-0.03,-9.848 -0.034,-19.696 -0.032,-29.544c-0.015,-2.946 -0.03,-5.892 -0.045,-8.928c0.053,-24.508 0.053,-24.508 14.06,-25.335Z" style="fill:#070707;fill-rule:nonzero;"/><path d="M1108.333,3441.667c3.258,37.291 3.258,37.291 -9.115,53.906c-32.679,23.964 -59.135,27.615 -99.219,25.26c-16.454,-3.82 -27.018,-7.479 -37.5,-20.833c-1.291,-12.954 0.71,-24.983 4.167,-37.5c16.921,-18.671 41.362,-17.66 65.104,-19.01c4.423,-0.265 4.423,-0.265 8.936,-0.536c22.555,-1.276 45.035,-1.776 67.627,-1.287Z" style="fill:#727272;fill-rule:nonzero;"/><path d="M2388.265,3340.723c28.712,-1.702 50.871,4.766 74.235,21.777c14.09,15.942 16.667,28.444 16.667,50l-162.5,0c0,-29.167 0,-29.167 6.771,-40.365c20.441,-19.903 36.949,-28.52 64.827,-31.413Z" style="fill:#747474;fill-rule:nonzero;"/></svg>